<?xml version="1.0" standalone="no"?>
<!DOCTYPE svg PUBLIC "-//W3C//DTD SVG 1.1//EN" "http://www.w3.org/Graphics/SVG/1.1/DTD/svg11.dtd" >
<svg xmlns="http://www.w3.org/2000/svg" xmlns:xlink="http://www.w3.org/1999/xlink" version="1.1">
<metadata></metadata>
<defs>
<font id="gazillions_script_fontregular" horiz-adv-x="1228" >
<font-face units-per-em="2048" ascent="1638" descent="-410" />
<missing-glyph horiz-adv-x="409" />
<glyph horiz-adv-x="0" />
<glyph horiz-adv-x="682" />
<glyph unicode=" "  horiz-adv-x="409" />
<glyph unicode="&#x09;" horiz-adv-x="409" />
<glyph unicode="&#xa0;" horiz-adv-x="409" />
<glyph unicode="!" horiz-adv-x="436" d="M22 50.5q-10 38.5 1 84.5q14 47 42 75t56 21q26 -8 36.5 -46t-1.5 -85q-12 -46 -40.5 -73.5t-56.5 -20.5q-27 6 -37 44.5zM88 350q2 29 73.5 285.5t67.5 294.5q-4 46 41 52q47 7 95 -32q41 -32 51 -80q6 -33 -48 -175.5t-109.5 -280t-53.5 -156.5q4 -17 -14 -16 q-30 2 -67 38q-37 35 -36 70z" />
<glyph unicode="&#x22;" />
<glyph unicode="#" horiz-adv-x="1239" d="M136 259q-1 55 38 71q20 9 250 55q3 15 11 46t11 48q-242 -58 -247 -82q-8 -23 -30 11q-31 47 -33 104q-1 56 38 72q33 14 313 63q51 253 33 271q-15 15 18 20q51 9 106 -14q55 -24 54 -66q-3 -32 -41 -176l64 12q80 335 53 359q-15 15 18 21q52 9 106 -13q57 -24 54 -68 q0 -41 -61 -262q199 42 211 70q9 27 40 -3q38 -36 48 -87q13 -63 -41 -80q-12 -3 -53.5 -11.5t-114.5 -23.5t-135 -29l-27 -106q269 55 283 90q9 26 40 -3q37 -35 48 -87q14 -65 -41 -82q-38 -9 -369 -78q-53 -218 -30 -238q19 -20 -20 -36q-50 -19 -103 -5q-62 15 -54 70 l41 172q-13 -1 -37 -7t-32 -7q-78 -299 -53 -324q20 -19 -19 -34q-49 -19 -101 -6q-62 16 -53 71q2 22 62 254q-176 -45 -182 -68q-8 -22 -30 12q-32 47 -33 104zM586 416q40 6 69 14q13 39 27 102q-33 -8 -68 -14q-9 -39 -28 -102z" />
<glyph unicode="$" horiz-adv-x="669" d="M4 237q-17 92 35 190q29 56 53 62q14 4 16 -15q1 -4 1 -9q0 -46 33.5 -83t88.5 -60q1 22 2.5 65.5t2.5 65.5q-43 11 -75.5 25t-64.5 40t-49.5 68.5t-17.5 99.5q0 233 245 281q10 240 -14 262q-15 16 28 37q61 29 124 22q78 -10 71 -82q0 -17 -30 -233q139 -17 169 -120 q19 -65 -9 -125q-19 -39 -37 -31q-3 1 -5 3q-12 16 -54 32.5t-93 25.5l-25 -201q44 -11 78.5 -23.5t72 -34t62.5 -48t41.5 -67t16.5 -89.5q0 -43 -18 -86.5t-52 -81t-93 -61.5t-132 -25q7 -162 55 -197q26 -20 -11 -45q-43 -29 -98 -25q-42 2 -61 29q-36 49 -39 252 q-191 39 -217 182zM199 649q0 -27 49 -47q1 23 4 71t4 72q-57 -31 -57 -96zM379 299q51 16 51 68q0 18 -11 28.5t-34 20.5z" />
<glyph unicode="%" />
<glyph unicode="&#x26;" />
<glyph unicode="'" />
<glyph unicode="(" horiz-adv-x="524" d="M21 141q-34 167 50 422q73 221 183 363q89 114 162 114q26 -1 47 -16t32 -37.5t15 -46t-2.5 -42.5t-20.5 -26q-57 -24 -136 -176q-96 -185 -129 -365q-40 -217 54 -263q22 -11 52 -11q26 0 20 -25q-8 -32 -49 -55q-32 -18 -70 -18q-171 1 -208 182z" />
<glyph unicode=")" horiz-adv-x="376" d="M12 888q0 32 34 61q22 19 52 26q157 38 225 -132q60 -150 33 -392q-23 -216 -96 -347q-45 -82 -96 -94q-23 -5 -44 3.5t-35 25t-22 36t-7 37t12 25.5q47 36 84 200q45 199 27 358q-20 176 -115 178q-14 1 -29 -3q-22 -5 -23 18z" />
<glyph unicode="*" />
<glyph unicode="+" />
<glyph unicode="," horiz-adv-x="251" d="M25 -100q-11 14 2 24q14 11 45 75.5t43 109.5q7 30 35 30q14 0 23.5 -2t19.5 -9.5t9 -22t-7 -39.5q-52 -155 -122 -177q-33 -10 -48 11z" />
<glyph unicode="-" />
<glyph unicode="." horiz-adv-x="126" d="M20 86q0 -18 13.5 -29.5t32.5 -11.5t31 11t12 30t-12 31t-31 12t-32.5 -12.5t-13.5 -30.5z" />
<glyph unicode="/" />
<glyph unicode="0" horiz-adv-x="733" d="M18 160q-47 145 20 362q63 205 189 350q133 154 269 154q149 0 207 -148q57 -140 14 -349q-44 -211 -162 -360q-134 -169 -305 -169q-179 0 -232 160zM229 425q-45 -149 11 -180q6 -3 12 -5q63 -17 142 104q76 116 109 258q33 141 -13 171q-5 3 -11 5q-48 14 -126 -98 q-83 -118 -124 -255z" />
<glyph unicode="1" horiz-adv-x="509" d="M2 483q17 7 190 246t211 315q1 -2 20 0t47 -3t53.5 -13t39.5 -28.5t6 -49.5q-48 -165 -133.5 -546.5t-56.5 -409.5q16 -16 -14 -20q-47 -6 -104 21q-79 38 -73 109q6 50 26 152t37 179l17 77q-83 -144 -183 -113q-48 15 -76 58q-15 22 -7 26z" />
<glyph unicode="2" horiz-adv-x="720" d="M2 195q2 6 122 156.5t212.5 287.5t50.5 137q-41 0 -104 -72.5t-102.5 -151t-22.5 -95.5q-112 0 -128 94q-16 90 55 212q72 123 179 186q74 44 146 44q48 0 89 -12t75.5 -39t54.5 -75.5t20 -114.5q0 -50 -34 -116.5t-83 -125.5t-98 -110.5t-83 -81.5l-34 -31q53 0 98 9.5 t74.5 24t53 32.5t36.5 36t21.5 32.5t11.5 24.5l2 9q76 0 99 -78q22 -75 -17 -164q-39 -92 -114 -118q-24 -9 -50 -9q-10 0 -79 5.5t-119 6t-111.5 -18t-91.5 -59.5q-22 -29 -69 25q-46 53 -59 111q-6 25 -1 39z" />
<glyph unicode="3" horiz-adv-x="702" d="M5 95q-19 64 18 131q27 50 57 51q11 0 20 -9q101 -101 231 -15q78 52 130 141q37 64 22 81q-13 18 -48 8.5t-67.5 -28t-70.5 -36.5t-57 -18q-38 0 -52 48q-12 39 2 56q4 5 9 5q50 0 143 91q91 88 120 160q27 66 -30 66q-41 0 -81 -27t-68 -65t-50 -76t-33 -65l-10 -27 q-83 0 -100 79q-17 81 38 185q60 113 161 164q60 29 123 29q73 0 124 -31t72 -79.5t24.5 -102t-14 -103t-47.5 -79.5q108 0 127 -92q20 -94 -53 -226q-78 -143 -212 -230q-125 -81 -259 -81q-142 0 -169 95z" />
<glyph unicode="4" horiz-adv-x="653" d="M0 350q0 36 83 183t166 288.5t83 163.5q0 25 32 25q43 -1 80 -44q44 -50 39 -128q0 -5 -2 -9q42 139 35 156q-6 21 26 27q46 9 90 -22q72 -51 40 -154q-36 -111 -82 -301q79 0 113 -77q26 -58 10 -108q-14 -43 -48 -28q-12 6 -24 18q-37 32 -90 35q-69 -322 -27 -367 q17 -18 -17 -31q-47 -18 -108 2q-91 30 -102 127q-2 13 -2 27q0 64 37 199q-73 -26 -226 -96q-56 -27 -81 7.5t-25 106.5zM274 457q54 24 105 39q12 38 48.5 152.5t51.5 166.5q-24 -69 -205 -358z" />
<glyph unicode="5" horiz-adv-x="782" d="M0 225q0 93 47 137q28 26 45 11q8 -7 8 -23q0 -108 92 -128q81 -18 182 34q93 48 124 117q12 26 12 51q0 92 -117 51q-85 -30 -169 -98q-37 -30 -38 -41q-1 -21 -46 10q-50 36 -68 73q-3 6 -4 11q-3 14 9.5 63.5t41.5 148t41 142.5q-63 0 -83 81q-16 64 1 117 q13 39 33 19q24 -27 96 -24v4q1 21 22 20t50 -20q38 5 119 18.5t151.5 22t128.5 8.5q93 0 104 -95q7 -61 -18 -117q-12 -27 -15 -12q-1 3 -1 9q0 20 -33 26.5t-100 0.5t-120 -13.5t-139 -21.5q-16 -64 -71 -199q94 76 198 76q148 0 211 -114q56 -101 22 -240 q-36 -144 -150 -236q-115 -94 -273 -94q-131 0 -212 68.5t-81 156.5z" />
<glyph unicode="6" horiz-adv-x="741" d="M20 189q-52 155 30 385q68 192 187 327q108 123 199 123q127 0 181 -86q32 -50 21 -90q-5 -21 -20 -21q-61 0 -123.5 -34.5t-111.5 -88.5t-87.5 -121.5t-57 -131.5t-14 -121t35.5 -88q16 -16 31 -21q-26 31 -31 82.5t13.5 106.5t54 104t97.5 81t136 32q102 0 151 -97 q48 -96 20 -224q-33 -145 -146 -229q-104 -77 -252 -77q-251 0 -314 189zM377 215q81 16 138.5 78.5t23.5 112.5q-25 37 -79 -27q-54 -63 -78 -144q-3 -11 -5 -20z" />
<glyph unicode="7" horiz-adv-x="686" d="M0 117q0 66 176 332q-64 -14 -110 -21q-34 -4 -46.5 31.5t-7.5 73.5l4 38q11 -7 47 -1t116 26.5t118 28.5l117 161l-191 -49q-99 -27 -144 62q-29 58 -19 119q6 36 24 35q4 0 8 -3q11 -6 50.5 3t151 30.5t249.5 34.5q42 4 76 -24t50.5 -68t15.5 -83t-23 -69 q-21 -23 -109 -137q27 -9 45 -27q38 -37 12 -99q-14 -34 -29 -38q-4 -2 -6 2q-14 31 -120 21q-107 -156 -181.5 -295.5t-74.5 -200.5q0 -23 -47 -17q-64 7 -112 51q-40 36 -40 83z" />
<glyph unicode="8" horiz-adv-x="647" d="M6 251q17 60 58.5 121.5t101.5 116.5q-12 5 -29 9q-119 58 -85 187q28 108 145 214q119 109 240 135q76 16 130 -10q65 -32 75.5 -99.5t-23.5 -144t-99 -145.5q7 -1 14.5 -3.5t15 -6t11.5 -4.5q105 -52 81 -183q-21 -117 -128 -235q-112 -125 -239 -160q-97 -27 -175 12 q-65 31 -88 83.5t-6 112.5zM215 240q27 -22 91 19t107 98.5t19 76.5q-22 19 -87 -20t-111 -95t-19 -79zM238 662q26 -21 89.5 21t106.5 100t19 77q-20 18 -85.5 -21.5t-111 -96t-18.5 -80.5z" />
<glyph unicode="9" horiz-adv-x="595" d="M9 457q-27 109 33 262q61 154 167 240q81 65 166 65q43 0 77 -15t53 -38t28.5 -47t9.5 -45q53 -43 53 -131q0 -23 -24 -116t-51.5 -197.5t-47.5 -229t-14 -205.5q1 -22 -42 -12q-60 13 -105 61q-38 42 -38 90q0 99 50 316q-78 -111 -172 -111q-115 0 -143 113zM245 568 q1 -21 17 -21q51 0 106 119t64 202q-59 -32 -127 -145q-62 -105 -60 -155z" />
<glyph unicode=":" />
<glyph unicode=";" />
<glyph unicode="&#x3c;" />
<glyph unicode="=" />
<glyph unicode="&#x3e;" />
<glyph unicode="?" horiz-adv-x="909" d="M18 57q4 42 35 84q33 42 71.5 58t63.5 -2t20.5 -60.5t-36.5 -83.5t-71 -57.5t-64 2.5q-23 17 -19 59zM82 625q0 27 16 70t48 92t73 91.5t98.5 70.5t118.5 28q102 0 173 -74t71 -201q0 -57 -40.5 -128.5t-98 -135.5t-114.5 -120.5t-97.5 -97t-40.5 -50.5q0 -19 -30 -4 q-40 22 -65 70q-16 31 -16 61q0 23 97 133q124 140 158 189q84 125 -17 126q-44 0 -84 -41.5t-63 -100t-23 -111.5q0 -29 -34 -30q-44 -2 -85 40q-45 49 -45 123z" />
<glyph unicode="@" horiz-adv-x="1034" d="M21 410q52 204 198 370q166 189 375 233q55 11 111 11q162 0 247 -85.5t82.5 -208t-44.5 -244.5t-128 -207.5t-174 -85.5q-5 0 -14.5 1t-14.5 1q6 -41 -12 -92t-53.5 -97.5t-95.5 -78t-129 -31.5q-238 0 -326 164q-75 140 -22 350zM166 151q42 -108 186 -108q42 0 84 17 t76 45.5t57 53t43 50.5q-61 32 -57 129q-41 -86 -90.5 -144.5t-99.5 -58.5q-139 0 -142 128q-3 115 95 281q79 133 157 192q36 26 60 26q54 0 84.5 -27t39.5 -67q6 8 17 8q34 0 67.5 -33.5t12.5 -54.5q-28 -28 -65 -104q-49 -110 -5 -115q73 0 143 101q71 103 84 223 q15 137 -64 188q-37 24 -93 24q-176 0 -346 -160q-140 -131 -213 -306q-74 -177 -31 -288zM348 260q16 0 64 64t115.5 163.5t97.5 137.5q-10 24 -31 24q-28 0 -98.5 -97.5t-120.5 -194.5t-27 -97z" />
<glyph unicode="A" horiz-adv-x="1101" d="M19 141q-20 56 -20 123q0 93 39 207q63 182 186 310q129 132 259 132q111 0 111 -107q0 -15 -2 -33q-14 -118 -114 -275q-71 -113 -119 -140q-10 -6 -17 -6q-13 0 -13 16q0 27 38 98q12 22 39 69q75 131 76 160q1 16 -13 16q-34 0 -96 -110q-73 -131 -98 -251 q-7 -35 -7 -60q0 -61 41 -61q47 0 187 252.5t259 519t119 312.5q1 -2 15 0.5t38 -2t52 -8.5t57 -19.5t52 -35.5t38 -55t15 -79q0 -85 -28.5 -254t-57.5 -371t-29 -366q0 -44 5.5 -86.5t11.5 -65.5t9 -41t-2 -25t-22 -7q-76 0 -128 40.5t-74 108.5q-22 69 -30 159 q-3 35 -2 71q0 58 7 120q-94 -4 -131 -8q-233 -401 -402 -401q-194 0 -249 153zM752 541q23 8 69 16q16 106 47 234q-79 -176 -116 -250z" />
<glyph unicode="B" horiz-adv-x="1142" d="M2 322q4 64 20.5 121.5t39.5 103t49 71.5q68 68 137 68q35 0 70 -17q54 -24 80 -68q15 -29 -1 -30q-23 0 -51.5 -46.5t-43.5 -112.5q-13 -59 -13 -118v-16q2 -66 46.5 -112.5t129.5 -46.5q79 0 146.5 21.5t113 56.5t80 78.5t52 88t25.5 84.5q6 29 6 53q0 9 -1 17 q-3 29 -15 41q-17 17 -53 17t-66 -8.5t-77 -24.5q-54 -129 -78 -207q-13 -42 -13 -67q0 -22 9 -31q17 -16 -11 -28q-19 -9 -42 -9q-24 0 -51 10q-87 32 -98 144l-1 28q0 18 9.5 50t29 81t37 89.5t47 108t45.5 105.5q-47 -8 -119 -8q-146 0 -170 116q-5 22 -5 45q0 52 24 106 q17 41 30 38q7 -2 7 -24q0 -34 50 -34q28 0 73 11q53 12 204 63q0 15 -10 25t13 13q9 1 19 1q28 0 66 -10q209 66 310 66q168 0 191 -116q4 -18 4 -37q0 -85 -68 -195q-76 -121 -179 -187q125 -51 138 -188q2 -16 2 -32q0 -122 -86 -258q-102 -162 -271 -253 q-151 -82 -319 -82q-110 0 -195 26t-135.5 70t-83.5 101.5t-42 121.5q-6 46 -6 91q0 17 1 35zM719 639q69 22 123 87q56 66 74 128q9 30 9 50q0 21 -10 30q-4 4 -13 4q-20 0 -64 -23q-33 -89 -119 -276z" />
<glyph unicode="C" horiz-adv-x="1191" d="M0 459q0 -97 74 -158q58 -47 116 -47q4 0 8 0.5t6 1t3 0.5q-2 0 -2 4q-24 21 -21 55q10 82 156 224q29 28 72 60.5t73.5 53.5t92 60.5t84.5 54.5q-206 -206 -332 -461q-60 -130 -78 -233q-9 -46 -9 -85q0 -60 21 -104q55 -139 281 -139q110 0 254 100q113 74 256 217 q33 33 67.5 70.5t60.5 67.5t52.5 62.5t42 52t31.5 40t18 23.5l-55 88q-50 -49 -109.5 -103t-166.5 -145t-202.5 -149t-148.5 -58t-84 31q-26 29 -26 82q0 79 52.5 193.5t127.5 224.5q72 104 148.5 181t127.5 77q13 0 19 -13q1 -3 1 -7q0 -44 -161 -244q-83 -101 -170 -201 q47 -70 117 -70q48 0 100 37q29 19 107 105q40 47 124 170q112 183 112 295q0 28 -7 51q-25 85 -156 88h-8l-2 6q-1 9 -3.5 17t-6 14t-6.5 10.5t-8 9t-7 7t-7 6.5l-5 3q-47 -41 -287 -116q-340 -114 -485 -195q-252 -142 -252 -315z" />
<glyph unicode="D" horiz-adv-x="1249" d="M82 88q0 -55 29 -102q26 -48 73 -76q98 -64 254 -64q160 0 324 88q153 82 276 222q121 138 191.5 296t70.5 293q0 79 -22 134v2q-21 59 -68 106q-54 51 -131 74q-86 26 -184 26q-129 0 -258 -63q-106 -56 -203 -156q-83 -88 -131.5 -180.5t-48.5 -148.5q0 -101 55 -160 q33 -33 64 -39q-8 16 -8 39q0 11 2 24q13 100 104 224q94 141 223 213l60 30l-19 -61q-12 -53 -69 -180l-25 -60l-8 -20q-111 -262 -141 -363q-11 -38 -17 -69l-6 -23l-20 -2h-11q-94 0 -153 47q-42 29 -58 70v2q-11 30 -11 57q0 6 1 13q-39 -16 -65 -39q-70 -55 -70 -154z M647 135l27 74q40 108 88 225l4 10q6 15 17 43.5t17.5 45.5t16.5 42.5t16.5 42.5t14 38t12 35.5l9 29t6.5 25t2 16.5q0 49 -43 76l-70 45l84 4q8 2 26 2q77 0 127 -33q45 -29 64 -90q7 -28 7 -58q0 -39 -11 -83q-13 -68 -68 -166q-53 -88 -126 -162t-154 -121z" />
<glyph unicode="E" horiz-adv-x="892" d="M0 602q0 82 36 176.5t100.5 180.5t144.5 157t177 113.5t189 42.5q78 0 148.5 -27t119 -85.5t48.5 -137.5q0 -75 -34 -156.5t-89.5 -147.5t-132.5 -109.5t-156 -43.5q-66 0 -100 32t-36 80v12q1 43 13 91q14 54 41 102t55 76q38 38 79 38q24 0 49 -13q31 -16 37 -34 q3 -7 -3 -7q-15 0 -45 -60q-29 -60 -28 -92q0 -11 3 -19q5 -11 17 -11q70 0 112 80q27 51 27 103q0 29 -8 57q-24 80 -115 81q-52 0 -120 -37.5t-131 -98.5t-106.5 -151t-43.5 -184q0 -62 17 -89t47.5 -24t62 15t70.5 27.5t63 15.5q66 0 91 -34q16 -21 -1 -31q-5 -3 -14 -3 q-23 0 -81 -64q-79 -87 -87 -147q-3 -53 59 -55q76 0 133.5 76.5t77.5 153.5q10 41 10 60q0 17 -8 17q-10 0 13 14q49 29 96 29q7 0 14 -1q81 -11 82 -124q0 -157 -137 -305q-113 -122 -259 -176q-76 -28 -135.5 -28t-103.5 28q-78 49 -78 178q0 112 96 217q-34 1 -66 6.5 t-72 22t-69 41.5t-49 69.5t-20 102.5z" />
<glyph unicode="F" horiz-adv-x="819" d="M8 259q28 153 132 261.5t243 118.5q13 1 25 1q118 0 129 -97q1 -11 2 -23q0 -76 -58 -172q-51 -87 -101 -111q-11 -5 -20 -6q-13 -1 -13 14q1 11 25 76q15 39 15 62q0 22 -14 27q-7 3 -19 2q-43 -4 -83 -80t-40 -146q0 -8 1 -16q6 -80 71 -80h2h8q33 2 67.5 38 t79.5 126.5t70.5 147.5t83.5 195l9 21h-4q-79 0 -83 72v11q0 44 22 80q15 25 19 7q1 -2 1 -4q0 -16 79 -16h27q5 12 16.5 37t16.5 37q-5 0 -16.5 -1t-16.5 -1q-66 -5 -114.5 -14.5t-74.5 -21.5t-43 -26.5t-20 -30t-5 -31t1 -30.5q2 -23 -25 -25h-8q-38 0 -81 36 q-57 47 -62 118q-1 14 -1 28q0 46 13 82q17 47 46.5 75t80 44t96.5 21q29 3 65 3q22 0 46 -1q66 -3 111 -8.5t108 -14.5q129 232 242 240q8 1 16 1q65 -1 111 -47q52 -52 57 -122q1 -11 1 -22q0 -37 -11 -67q-14 -39 -41 -66t-69.5 -47t-88 -31.5t-104.5 -20.5 q-11 -29 -29 -76q141 18 225 23q6 0 11 1q60 0 60 -60q0 -56 -41 -120q-23 -35 -29 -21q-1 2 -1 5q-4 35 -86 39q-18 1 -38 1q-69 0 -154 -11q-32 -90 -54.5 -149.5t-58 -146t-65 -143.5t-70 -122.5t-78.5 -104.5t-85 -67t-95 -31q-22 -2 -43 -2q-170 0 -248 118 q-51 76 -51 179q0 40 8 85zM1008 1026q41 10 66 44q12 19 3 20q-33 -3 -69 -64z" />
<glyph unicode="G" horiz-adv-x="927" d="M0 602q0 145 120 205q58 29 116 29q18 0 35 -3q47 -6 45 -26q-1 -6 -7 -12q-53 -58 -53 -132v-15q6 -83 63 -126q50 133 122.5 251t156 194.5t152.5 76.5q73 0 106 -46.5t33 -141.5q0 -69 -23 -131q125 0 125 -55q0 -536 -139 -867q112 -49 221 -49q70 0 130 13.5 t105.5 38.5t74 46.5t57.5 49.5q19 19 32 -16q10 -26 10 -58q0 -35 -12 -77q-36 -132 -158 -191q-81 -39 -192 -39q-215 0 -370 94q-155 -209 -400 -209q-64 0 -117 19t-86.5 52t-56.5 75.5t-26 90.5q-2 17 -2 34q0 31 4 62q7 48 31.5 93t59 80.5t86.5 59.5t113 30 q-69 31 -92 116q-11 45 -11 99q0 47 9 102q-41 5 -76.5 16t-70.5 32.5t-59.5 51.5t-40 77t-15.5 106zM265 -368q30 -46 110 -46q124 0 219 127q-94 60 -199 60q-89 0 -126 -55q-16 -24 -16 -47q0 -19 12 -39zM477 342q-4 -32 -4 -58q0 -122 84 -122q36 0 72 40t65.5 107 t51 132t40.5 137q-57 -79 -138.5 -141.5t-170.5 -94.5zM494 -12q33 -9 72.5 -28t59 -31t68.5 -42q70 158 111 357q-57 -93 -135.5 -166t-175.5 -90zM535 567q70 59 99 120q20 42 -3 42q-15 0 -42.5 -46.5t-53.5 -115.5z" />
<glyph unicode="H" horiz-adv-x="899" d="M11 195q34 146 155 236q103 77 248 91q30 209 30 387.5t-41 220.5q-10 11 31 33q61 32 125 32q9 0 18 -1q105 -8 116 -115l1 -24q0 -63 -23 -212.5t-61 -307.5q11 2 23.5 4.5t26.5 5.5t20 4q61 242 125 399q31 76 70.5 127t78 70.5t77.5 21.5h7q35 0 65 -18 q33 -20 59 -50t40.5 -72.5t14.5 -86.5q0 -75 -31.5 -151t-85.5 -139.5t-119 -115.5t-137 -90q-8 -79 -8 -186q0 -125 21 -243t52 -201.5t65.5 -148t63 -96.5t43.5 -32q21 0 9 -17q-21 -30 -95 -52q-59 -17 -129 -17q-76 0 -131.5 38t-85 106.5t-43.5 156.5q-12 72 -13 158 q0 18 1 36q3 108 15.5 214.5t35.5 222.5q-3 0 -9 -1t-9 -1h-60q-34 -107 -71 -193.5t-83 -160t-101.5 -114t-114.5 -40.5q-111 0 -165 98q-33 60 -33 132q0 44 12 92zM254 212q-6 -20 -6 -36q0 -24 14 -38q9 -9 21 -9q44 0 94 207q-98 -47 -123 -124zM879 635 q121 84 162 212q15 44 15 75q0 22 -8 36q-5 11 -14 11q-32 0 -77 -94.5t-78 -239.5z" />
<glyph unicode="I" horiz-adv-x="471" d="M6 786q-6 19 -6 40q0 36 20 80q32 68 89 133t116 125.5t97 112.5q31 42 32 68q0 6 -2 11q12 4 31 8.5t54 3t42 -21.5q41 -137 42 -333q1 -51 -3 -105q-14 -266 -58.5 -516t-86.5 -341q-30 -62 -90 -62q-20 0 -43 7q-64 20 -109 72q-25 30 -25 49q0 11 8 18q5 4 11 6 q18 6 35 25.5t32 53.5t27.5 69.5t24 89.5t20.5 96.5t18.5 108.5t15.5 107t13.5 110t11 99.5t9.5 92.5q-28 -12 -57.5 -62.5t-46 -106.5t-21.5 -105t14 -57q18 -8 0 -16q-13 -5 -31 -5q-24 0 -55 10q-91 32 -129 135z" />
<glyph unicode="J" horiz-adv-x="1015" d="M21 172q48 184 175 321q147 160 327 169h20q56 -1 94 -27t52 -68.5t16 -96.5v-12q0 -47 -13 -96l43 -12q74 145 203 449q-209 -133 -307 -133q-140 0 -158 114q-3 18 -3 37q0 55 27 114q19 39 31 37q7 -1 7 -20q0 -30 37 -30q22 0 58 11q24 7 179 70q162 66 238 66 q12 0 31 -5.5t43.5 -17t41.5 -37t17 -59.5q0 -42 -63 -226t-154 -372q16 5 90 59.5t86 61.5q22 13 37 -16q8 -16 8 -33q0 -22 -14 -45q-14 -24 -42 -41q-23 -14 -102.5 -55t-136.5 -74q-284 -512 -557 -512q-215 1 -293 155q-39 76 -39 172q0 71 21 152zM258 104 q-7 -35 -7 -63q0 -76 52 -108q31 -19 78 -19q116 0 297 330l-25 6q-37 -78 -88 -127t-104 -49q-55 0 -77 57q-10 26 -10 52q0 39 21 80q46 91 162 111q13 2 27 3q-3 47 -56 47q-79 0 -163 -104q-82 -101 -107 -216zM457 181q3 -1 8 -1q12 0 35 23.5t43 56.5q-59 -9 -86 -47 q-17 -25 0 -32z" />
<glyph unicode="K" horiz-adv-x="1363" d="M10 0q-10 39 -10 83q0 115 69 267q86 187 224 321q143 137 262 138q113 0 163 -63q48 -59 48 -153v-11q90 190 153.5 374t63.5 238q4 1 10 2t24 3t34.5 0.5t36.5 -8.5t34.5 -19.5t24.5 -36t10 -56.5q0 -81 -48 -232t-128 -315q87 70 189.5 197.5t166.5 233.5t64 137 q0 16 29 6q47 -15 81 -70q31 -51 31 -118q0 -70 -48 -149.5t-124 -149.5t-166.5 -131.5t-179.5 -103.5t-158 -58v-2q34 -82 119 -82q80 0 156 28t121.5 61t88 61t64.5 28q16 0 16 -23q0 -17 -9 -46q-30 -99 -111 -198q-127 -151 -264 -153q-114 0 -175.5 59t-83.5 150 q-119 -169 -252 -270t-268 -101q-215 0 -258 162zM259 222q-24 -66 -24 -109q0 -58 45 -72q12 -4 29 -4q113 0 248 180q-7 -1 -13 -1q-37 0 -74 19q-44 22 -66.5 46t-12.5 24q14 0 72 76q90 121 99 182q5 35 -25 35q-43 0 -129 -112q-101 -132 -149 -264z" />
<glyph unicode="L" horiz-adv-x="1071" d="M15 -148q38 127 149 202q100 67 233 67q29 0 70 -6q13 24 37.5 74t36.5 73q-128 35 -201 133q-68 91 -68 197v16q6 115 88 197q81 80 172 80q29 0 60 -8q64 -17 96 -57q21 -27 2 -33l-8 -1q-19 0 -39.5 -24t-34 -62t-18.5 -80q-1 -11 -1 -21q0 -31 10 -61q14 -40 48 -63 q57 113 108 199t109 163t116.5 118.5t113.5 41.5q135 0 163 -110q6 -25 6 -55q0 -88 -58 -203q-82 -159 -225 -265q-109 -82 -226 -106l-95 -180q55 -12 169 -38.5t190 -43t182.5 -38.5t181 -32.5t149.5 -16.5q33 -3 61 -3q36 0 62 4q48 8 68 29q14 15 23 -20q6 -23 6 -50 q0 -42 -15 -94q-40 -134 -160 -176q-48 -17 -106 -17q-95 0 -220.5 40.5t-230 91.5t-235 108.5t-221.5 81.5q-98 -170 -184.5 -265.5t-165.5 -95.5q-131 0 -185 100q-28 52 -28 113q0 46 15 96zM201 -224q10 -14 30 -14q49 0 136 158q-95 -14 -146 -76q-24 -30 -24 -52 q0 -9 4 -16zM866 477q73 37 137 110q65 73 89 129q13 30 12 43q0 13 -10 13q-77 0 -228 -295z" />
<glyph unicode="M" horiz-adv-x="1030" d="M0 233v19q0 56 8 110q8 64 27.5 119.5t44.5 93.5q63 97 153 97q24 0 50 -7q65 -17 105 -61q22 -26 9 -29q-49 -13 -101 -138t-54 -218q0 -4 -1 -8q0 -55 27 -54h4q2 1 4 1q35 7 105.5 210.5t120.5 429.5q40 177 40 254q0 21 -3 35q4 2 12 5.5t31 10.5t44.5 10.5t49 1 t49 -13t40 -36t26.5 -64.5q1 -3 1 -9q0 -71 -98 -500q147 410 209 505q32 50 88 50q26 0 57 -11q50 -17 72 -43q10 -11 -1 -10h-3q-14 2 -28.5 -32t-27 -94t-24.5 -138.5t-20.5 -167t-15 -178t-8.5 -172.5q-1 -31 -1 -60q1 -48 3 -90q2 -67 10 -112t22 -56q12 -10 -17 -24 q-30 -13 -64 -13q-25 0 -52 7q-78 21 -115 102q-17 38 -17 117q0 160 68 489q-177 -529 -217 -536q-19 -4 -32 11.5t-18.5 47.5t-7.5 70q-1 15 -1 32q0 26 2 56q3 50 6.5 92t9.5 92q-120 -434 -280 -469q-36 -8 -68 -8q-33 1 -61 9q-56 16 -89 57t-52 97t-21 121z" />
<glyph unicode="N" horiz-adv-x="1132" d="M15 1048q16 63 31 64q7 0 9 -18q5 -42 33 -58q19 -10 46 -10q14 0 30 3q47 8 104 28t125.5 49.5t133 56.5t132.5 49t119 27q8 1 16 1q32 0 50 -17q23 -21 26 -63q1 -11 1 -22q-1 -32 -7 -70q-8 -50 -28 -114q159 242 272 252q17 2 33 2q81 0 147 -46q80 -55 90 -152v-6 q0 -36 -40 -128q-44 -100 -109.5 -227t-129.5 -261q-63 -134 -105 -264q-34 -107 -35 -182q0 -16 2 -30q7 -58 26 -94t41.5 -45.5t46 -13t40 0t21.5 -2.5t-6.5 -24.5t-46.5 -62.5q-60 -74 -143 -103q-53 -18 -102 -18q-28 -1 -56 5q-74 16 -131 79t-67 158q-2 16 -2 33 q0 185 194 567q22 44 186 349q117 218 118 270q1 26 -21 26h-4q-39 -5 -177.5 -240t-257.5 -477q-116 -236 -116 -270q0 -24 -25 -27q-5 -1 -9 -1q-39 0 -85 37q-69 57 -80 153v5q0 94 283 671q-195 -163 -334 -178q-23 -3 -45 -3q-151 0 -193 132q-16 48 -16 101 q0 52 15 109z" />
<glyph unicode="O" horiz-adv-x="1130" d="M11 643q-12 45 -12 94q0 51 13 107q16 67 34 67q3 0 5 -2q36 -26 78 -27h4q39 0 79 18q42 20 90 53t94.5 73.5t100 82.5t103.5 78.5t108 63t111 33.5q27 4 53 4q150 0 218 -138q48 -96 48 -234q0 -76 -15 -165q-42 -253 -177 -467q-145 -232 -337 -308q-51 -20 -103 -27 q-23 -3 -45 -3q-60 0 -106 24q-62 34 -89 100q-26 66 -30 153q0 12 -1 24q0 75 19 159q22 96 63 190q-79 -55 -145 -66q-15 -2 -28 -2q-102 0 -133 115zM482 284q-1 -11 -1 -21q0 -93 49 -93h5h2q54 7 153 184q111 199 176 412q38 125 38 194q0 57 -26 74q-13 9 -32 6 q-72 -11 -156 -86h8q16 2 30 2q93 0 93 -103v-6q-2 -111 -91 -279q-54 -102 -80 -116q-2 -1 -3 -1q-9 -1 -11.5 12t0 34.5t7.5 47t8.5 51t4.5 46.5t-5.5 33.5t-21.5 10.5q-35 -6 -83 -130q-58 -149 -64 -272z" />
<glyph unicode="P" horiz-adv-x="851" d="M1 764q-1 36 19 35q7 0 17 -8q19 -15 54 -15q19 0 45 5q70 13 150 45.5t174.5 79t175 88t150.5 73.5t101 37q16 3 30 3q88 0 119 -102q15 -49 15 -110q0 -85 -29 -192q-52 -194 -160 -317q-86 -96 -182 -112h-6q-108 -315 -305 -348q-30 -5 -57 -5q-119 0 -166 99 q-26 53 -26 121q0 59 20 130q39 143 129 230q61 57 126 68q13 2 24 2q73 0 83 -79q1 -11 1 -23q0 -70 -42 -156q-39 -79 -76 -89q-2 -1 -4 -1q-23 -3 -20 23q2 14 29 84q19 51 2 51h-3q-25 -3 -59 -78q-37 -84 -38 -145q0 -11 2 -22q6 -53 49 -53q5 0 11 1q47 8 100 122.5 t89.5 256t46.5 252.5q-193 -125 -352 -150q-19 -3 -37 -3q-93 0 -155 82q-44 60 -45 120zM725 451q64 56 102 201q22 83 22 138q0 29 -6 50q-9 29 -30 26q-3 0 -39 -24q0 -55 -12 -165.5t-37 -225.5z" />
<glyph unicode="Q" horiz-adv-x="1351" d="M4 762q8 50 21 63q52 -58 168 -61h7q82 0 182 22q104 23 253 66q238 68 321 68h5q37 0 67 -15q6 2 19 2q73 -3 131 -45q122 -88 149 -244q5 -37 5 -76q0 -111 -44 -243q-84 -254 -268 -453q99 -45 194 -49h23q208 0 367 51q146 46 221 115v-8q0 -24 -9 -64 q-12 -47 -42 -102q-150 -246 -454 -246h-22q-254 5 -440 152q-68 -48 -102 -64q-105 -59 -202 -59h-9q-88 3 -148 49q-107 73 -125 223q-4 32 -4 67q0 109 43 247q48 136 133 272q40 69 115 166q-234 -131 -355 -131h-5q-78 3 -127 49q-47 50 -60 113q-12 39 -12 84 q0 25 4 51zM514 10q-19 -53 -19 -90q0 -48 31 -70q15 -12 37 -12h3q43 0 108 51q-80 114 -115 232q-33 -72 -45 -111zM641 262q15 -55 57 -122.5t101 -129.5l47 60q78 101 141 211t92 196q21 63 21 106q0 55 -33 79q-14 7 -29 10q-46 0 -129 -74q-68 -62 -149 -170 q-60 -74 -119 -166z" />
<glyph unicode="R" horiz-adv-x="1024" d="M0 -51q0 -37 18 -70q16 -32 51.5 -57t92.5 -25q80 0 180 115q89 103 180 281l4 6h6q12 -2 35 -2q29 0 56 8l8 2l4 -8q120 -211 221 -349q141 -191 242 -225q38 -14 80 -14q114 0 190 115q28 45 28 67q0 3 -1 6q-169 0 -342 156q-114 103 -267 311l-6 8l11 7 q148 98 243 231q111 157 111 303q0 130 -86 201q-79 67 -221 67q-101 0 -228.5 -61t-244.5 -166q-120 -108 -187 -227t-67 -221q0 -83 47 -146q40 -49 73 -49q9 0 9 6q0 111 108 285q84 136 273 284q-70 -119 -142 -253l-2 -5l-4 -2q-63 -19 -90 -75q-20 -41 -20 -82 q0 -18 4 -35l2 -4l-2 -4q-118 -205 -172 -275q-90 -121 -152 -121q-26 0 -43 17zM647 451l2 6q50 112 99 229q76 177 96 217l4 6h6q66 0 86 -51q7 -20 7 -44q0 -72 -60 -183q-78 -144 -180 -236l-9 -8l-8 10q-29 38 -39 49z" />
<glyph unicode="S" horiz-adv-x="1181" d="M413 271q18 146 106 240q82 87 192 87q132 0 180 -107q28 -62 28 -125q-1 -45 -15 -89q-34 -107 -103 -107q-24 0 -31.5 24.5t-6 53.5t-13 53.5t-50.5 24.5q-40 0 -49 -47q-3 -13 -3 -26q0 -43 29 -86q46 -71 130 -71q33 0 58.5 9t42 27.5t28.5 39.5t16 53q4 33 6 61 q1 9 1 18q1 22 -3 50q-4 40 -8.5 70t-13.5 72.5t-15 69t-16 65.5q-59 4 -117 23t-109.5 51t-83.5 84t-32 114q0 118 62 202q33 43 56 43h4q13 -2 13 -24q0 -53 52 -140.5t124 -133.5q22 237 236 237q138 0 183 -88q17 -34 17 -72q0 -47 -26 -100q-49 -100 -159 -154 q-30 -15 -62 -24q14 -77 67 -272q23 -69 24 -137q0 -29 -5 -57q-14 -96 -56.5 -171.5t-118 -122.5t-165.5 -47q-229 0 -333 151q-65 94 -65 216q0 30 4 62zM1047 831q57 23 82 75q17 37 0 46q-3 2 -7 2q-35 0 -54 -33.5t-21 -89.5z" />
<glyph unicode="T" horiz-adv-x="593" d="M0 829q0 81 66 138q63 48 174 71q115 27 376 31q6 43 -10 59q-2 1 -4 4l-2 3q1 0 3 0.5t6 1t9 0.5q30 0 72.5 -17.5t75.5 -48.5q286 0 420 21q85 17 137 49q55 34 55 96q0 6 4 6q13 0 41 -18.5t54 -48.5q65 -78 65 -152q0 -61 -53 -100q-54 -41 -148 -62 q-145 -37 -460 -37q-76 0 -113 2q-2 -6 -76 -139q-42 -73 -65.5 -116.5t-59.5 -124.5t-55.5 -148t-35 -159.5t-15.5 -186.5q0 -15 -19 -25q-17 -10 -45 -10q-75 0 -127 55q-67 70 -67 199q0 56 21 126.5t66.5 160.5t77.5 147.5t91 157.5q-110 -107 -252 -107q-89 0 -146 45 q-61 48 -61 127zM160 788q0 -24 14 -38q15 -15 39 -15q64 0 199 82l28 17h-34h-33q-116 0 -164.5 -10.5t-48.5 -35.5z" />
<glyph unicode="U" horiz-adv-x="1040" d="M2 674q3 45 16 78q17 -34 59 -34q7 0 15 1q132 21 475 285q37 0 60 -9q75 -20 88 -108q1 -7 1 -15q0 -88 -89 -362q-45 -148 -47 -156q-11 -46 -11 -71t11 -29q7 -3 18 5t34 39.5t52 86.5l125 264q96 204 166 375q51 0 84 -4q87 -15 96 -82q1 -5 1 -13q0 -64 -75 -286 l-25 -87.5t-28.5 -101t-23 -87.5t-21.5 -93q-12 -69 -12 -120q0 -97 43 -130q16 -12 12 -24q-5 -20 -35 -38t-71 -24q-16 -3 -30 -3q-41 0 -71 22q-52 25 -59 100q-3 18 -3 40q0 60 19 157q-34 -71 -71.5 -121.5t-70 -75t-56 -35t-43.5 -12.5q-22 -3 -40 -3q-66 0 -100 38 q-41 55 -41 159q0 84 27 201q18 99 74 269q-53 -84 -121 -149.5t-133 -76.5q-19 -2 -36 -2q-102 0 -138 76q-27 48 -27 116q0 19 2 40z" />
<glyph unicode="V" horiz-adv-x="698" d="M2 1192q19 22 87 50q71 28 127 28q50 0 88 -23q58 -37 71 -129q9 -60 9 -198q0 -122 -7 -304q-1 -31 -2 -47q39 114 95 223.5t138 220t177 197.5t218.5 149.5t256.5 80.5q306 42 434 82q119 38 119 98q0 4 -1 8q-2 14 7 11q18 -7 41 -56q28 -60 28 -118q0 -45 -17 -90 q-70 -188 -429 -253q-29 -6 -60 -10q-150 -20 -283.5 -80t-231.5 -142t-179 -181.5t-133.5 -200t-86.5 -196.5q-36 -95 -48 -170q-8 -51 -8 -89q0 -18 2 -33q1 -9 -4 -13t-16.5 -3t-22.5 3t-27 7q-2 0 -41 15q-47 24 -88 63t-45 72q-4 29 -25.5 329t-54.5 500 q-32 193 -79 193h-3q-12 -2 -6 6z" />
<glyph unicode="W" horiz-adv-x="1372" d="M10 645q30 -129 174 -129q207 0 459 256l16 -12q-148 -220 -231 -402q-77 -168 -77 -265q0 -44 16 -73q35 -59 131 -59q84 0 188 119q80 92 164 248l18 -6q-24 -103 -24 -177q0 -92 37 -139q38 -47 110 -47q85 0 189 139q56 78 194 332q37 70 58.5 109.5t60 106t65 106.5 t66 95.5t72 89.5t74.5 72t81.5 58.5t85.5 34.5t93 14q11 0 14 6q6 6 6 17q0 22 -20 53.5t-56 62.5q-88 76 -211 76q-117 0 -237 -114q-107 -100 -211 -281q-172 -297 -281 -680l-20 4q59 551 151 670q6 9 0 20q-13 25 -41 25t-55 -27q-54 -54 -399 -680l-19 11 q232 574 232 634q0 56 -39 95q-39 36 -105 36q-25 0 -157 -53q-84 -36 -135.5 -56t-126 -40.5t-125.5 -20.5q-59 0 -93 27q-36 29 -36 92v4q-25 -34 -48 -123q-19 -80 -19 -143q0 -48 11 -86z" />
<glyph unicode="X" horiz-adv-x="1206" d="M0 -285q0 -13 18 -38t48 -50q73 -57 135 -57q117 0 245 113q114 94 236 270l8 12l8 -12q81 -131 132 -209t116.5 -169t112.5 -138q73 -70 166 -105q83 -30 178 -30q129 0 252 49q39 15 78 41q20 14 26 26l-5 1q-5 1 -11 1q-238 0 -479 271q-66 75 -142 184t-118.5 177.5 t-122.5 201.5l-2 4l2 6q11 16 34 58q118 195 172 272q86 119 140 119q12 0 20 4q4 4 4 10q0 31 -55 72q-61 45 -131 45q-73 0 -129 -56q-79 -83 -205 -266l-8 -12l-8 14q-105 159 -187 238q-92 92 -180 92q-165 0 -229 -100q-21 -38 -21 -60q15 11 29 11q59 0 155 -119.5 t244 -356.5l4 -6l-4 -4q-73 -107 -133.5 -186.5t-128 -153t-129.5 -112.5t-115 -39q-12 0 -16 -4t-4 -9z" />
<glyph unicode="Y" horiz-adv-x="905" d="M13 -198q33 89 125 136q65 33 143 33q51 0 219 -41q20 45 47 119q-62 -65 -131 -65q-75 0 -122 22t-64.5 60t-18.5 90v5q0 49 15 105q17 59 39.5 124t50 128t49.5 123.5t37 110.5q15 47 15 84q0 3 -1 7q-1 40 -21 60q-11 9 19 21t63 12q24 0 50 -7q101 -33 102 -173 q0 -60 -87 -266q-83 -198 -97 -253q-7 -26 -7 -43q0 -32 23 -32q70 0 237 362q33 98 60.5 168t60.5 133.5t68.5 96t73.5 32.5q57 0 120 -29q53 -24 53 -49q0 -12 -12 -24l-6 -6q-59 -48 -118 -163t-101 -236t-103.5 -286.5t-111.5 -271.5q117 -25 210.5 -37t200.5 -14h11 q100 0 182 28q87 28 146 87q20 19 36 -21q13 -34 13 -78q0 -32 -7 -69q-25 -134 -134 -184q-55 -25 -126 -25q-73 0 -153.5 12t-176 39.5t-145 43.5t-149.5 50q-128 -192 -289 -192q-196 0 -269 102q-33 46 -33 99q0 35 14 72zM264 -241q-23 -26 0 -43q16 -11 49 -11 q56 0 109 76q-35 12 -66 12q-63 0 -92 -34z" />
<glyph unicode="Z" horiz-adv-x="962" d="M0 397q0 -124 61 -194q68 -80 199 -80q64 0 133 29l10 -17q-93 -93 -276 -270l-49 -49q-8 -7 -8 -22.5t8 -39.5q19 -44 57 -80t66 -36q13 0 18 8q49 49 111 68.5t207 19.5q36 0 88.5 -14t89.5 -27.5t110 -42.5q90 -35 133 -50.5t113 -33t121 -17.5q93 0 147 54 q34 34 51.5 73t17.5 74.5t-5.5 63t-16.5 51.5q-12 31 -29.5 55.5t-29.5 34.5t-18 10q-2 -2 -2 -4q0 -45 -56 -63q-49 -17 -127 -17q-162 0 -549 72l-30 6l-19 4l13 12q181 228 657 701q4 3 6.5 6t5.5 6l4 4q25 25 32 56.5t-3 50.5q-6 18 -20 18q-76 0 -148.5 12t-141 36.5 t-111.5 43t-107 49.5q-60 28 -84 38.5t-64 23t-69 12.5q-97 0 -191 -61q-87 -58 -158 -154q-68 -96 -107.5 -208.5t-39.5 -211.5zM223 354q0 51 27 133t69 158q43 78 88.5 125.5t73 59.5t51.5 12q61 0 191 -60q124 -57 184 -57q15 0 15 -10q2 -4 2 -7t-4 -13.5t-13.5 -24.5 t-31 -41t-52.5 -62t-80.5 -88.5t-113.5 -118.5l-17 13q68 123 68 184q0 95 -64 150q-48 38 -102 38q-12 0 -14 -2q8 -8 8 -32q0 -21 -6 -54q-11 -57 -45 -141q-32 -87 -84 -149q-55 -70 -113 -70q-37 0 -37 57z" />
<glyph unicode="[" />
<glyph unicode="\" />
<glyph unicode="]" />
<glyph unicode="^" />
<glyph unicode="_" />
<glyph unicode="a" horiz-adv-x="690" d="M14 108q-16 44 -16 94q0 63 25 135q44 130 133 192q55 38 116 38q85 0 170 -100l4 63q2 0 5.5 1t14.5 3t21.5 3.5t24.5 2.5t26 1t24.5 -2.5t21.5 -6.5t14.5 -11.5t5.5 -18.5q0 -9 -11 -50.5t-23 -89.5q-12 -49 -20 -98q-5 -28 -4 -50q0 -18 2 -32q6 -32 32 -32 q22 0 50 34t45 68l17 33l39 -90q-4 -8 -11 -21t-31 -46.5t-50.5 -59.5t-67.5 -47t-84 -21q-102 0 -110 88q-109 -88 -211 -88q-115 0 -152 108zM196 192q0 -71 48 -71q54 0 94 91q33 76 33 148q0 11 -1 23q-4 68 -42 68q-41 0 -83 -83q-49 -93 -49 -176z" />
<glyph unicode="b" horiz-adv-x="579" d="M6 178q16 145 44 308.5t46 304.5q10 78 11 117q0 32 -7 38q10 1 26.5 2t58.5 -0.5t74 -9.5t58.5 -30t26.5 -56q0 -49 -82 -397q83 65 168 65q104 0 132 -96q9 -31 9 -66q0 -66 -33 -145q-51 -122 -145 -179q-56 -34 -117 -34q-48 0 -90 20q0 -16 7 -20q18 -19 -17 -29 q-20 -6 -42 -6q-32 0 -68 13q-33 11 -54 32q-13 13 -13 69q1 39 7 99zM204 159q0 -21 3.5 -37t15 -29t29.5 -13q30 0 69 86q46 101 46 183q0 73 -45 75q-27 0 -50 -30.5t-33.5 -61.5t-17.5 -62l-6 -22q-1 -9 -4 -25t-4 -22q-1 -5 -2 -13t-1 -29z" />
<glyph unicode="c" horiz-adv-x="532" d="M19 119q-19 45 -19 96q0 60 26 130q46 119 140 185q68 48 141 48q108 0 154.5 -45t46.5 -109q0 -55 -16 -91t-39 -49t-46 -18t-39 -2l-16 2q26 89 26 137q0 56 -36 56q-74 0 -110 -84q-23 -54 -23 -107q-1 -30 7 -61q20 -84 85 -84q39 0 79 10.5t69 26t52.5 31t35.5 25.5 l12 11l24 -90q-6 -6 -16 -15t-44 -32.5t-70 -41.5t-90 -33t-107 -15q-174 0 -227 119z" />
<glyph unicode="d" horiz-adv-x="679" d="M14 109q-16 44 -16 95q0 64 25 137q44 130 134 194q56 40 119 40q36 0 69 -17t48.5 -32.5t38.5 -42.5l33 482q5 1 13 1.5t32 0.5t45.5 -1.5t48 -8t45.5 -16.5t32 -29t13 -44q0 -9 -40 -194q-40 -184 -66 -353q-14 -89 -13 -131q0 -38 11 -38q23 0 51.5 34t45.5 68l17 33 l41 -90q-4 -8 -11 -21.5t-31 -47.5t-50.5 -59.5t-68.5 -47t-86 -21.5q-104 0 -113 88q-105 -88 -213 -88q-117 0 -154 109zM199 195q0 -74 49 -74q54 0 94 92q34 77 34 151q0 11 -1 22q-4 71 -43 71q-41 0 -85 -84q-48 -92 -48 -178z" />
<glyph unicode="e" horiz-adv-x="559" d="M18 118q-19 43 -19 93q0 59 27 128q46 118 139 180q66 44 134 44q105 0 150 -43.5t45 -105.5q0 -183 -281 -221q24 -74 80 -74q38 0 77 10.5t67.5 25.5t51.5 30t35 25l11 11l24 -88q-6 -5 -16 -14t-43 -32t-68 -40.5t-87.5 -32t-104.5 -14.5q-171 0 -222 118zM205 266 q87 20 135 89q24 34 24 58q0 11 -5 19q-7 14 -27 14q-58 0 -91.5 -54t-35.5 -126z" />
<glyph unicode="f" horiz-adv-x="518" d="M-61 -159q0 3 12 3q29 0 53.5 21.5t43.5 63.5t34.5 91.5t30.5 118t27.5 130.5t29 141.5t31.5 138.5h-27q-31 0 -41 20t4 40t41 20h43q22 75 47 132.5t58.5 105t77 73t94.5 25.5q4 0 10 0.5t24 -1.5t34.5 -6t36 -14.5t32.5 -25.5t21 -40.5t6 -58.5q-3 -45 -20.5 -76 t-40 -43.5t-44 -19t-36.5 -5.5l-15 1q33 75 33 114t-35 39q-41 0 -72 -206q33 0 73 -1t42 -1q21 0 28 -15.5t-1.5 -31t-26.5 -15.5l-123 -4q-6 -46 -18 -144t-20.5 -161.5t-22 -143t-27.5 -133.5q-41 -148 -202 -166q-24 -3 -46 -3q-66 0 -124 22q-25 9 -25 15z" />
<glyph unicode="g" horiz-adv-x="591" d="M-82 -254q0 121 87 162q30 14 56 14q14 0 27 -4q19 -7 8 -18q-18 -18 -20 -54q-1 -4 -1 -8q0 -32 20 -60q22 -32 65 -32q35 0 64.5 18.5t49.5 47.5t36 64.5t25 71t15 64.5t8 48l2 18q-107 -90 -213 -90q-117 0 -154 109q-15 44 -15 94q0 64 25 138q43 131 134 194 q56 40 119 40q90 0 172 -102l2 96h6h15.5t23 -1t27 -3t28 -4.5t25.5 -7.5t21.5 -11t13 -14.5t2.5 -19.5q-3 -18 -10 -80t-14.5 -128t-23 -154.5t-34.5 -168t-50.5 -159.5t-69.5 -137.5t-93 -93.5t-119 -36q-24 0 -53.5 4.5t-67.5 18t-67.5 35t-50.5 60.5t-21 89zM179 183 q0 -72 48 -72q54 0 94 92q34 76 34 149q0 11 -1 22q-5 69 -43 70q-42 0 -85 -85q-47 -91 -47 -176z" />
<glyph unicode="h" horiz-adv-x="692" d="M4 178q16 148 45 314t49 310q11 81 11 122q0 31 -7 37q10 1 26.5 2t59 -1t75 -10.5t59 -31.5t26.5 -58q0 -16 -4.5 -45.5t-14.5 -76t-18.5 -85.5t-24 -105.5t-24.5 -105.5q91 84 189 84q60 0 94.5 -21.5t42.5 -55.5q5 -23 4 -50v-25q-4 -42 -13.5 -83t-16 -75t0.5 -55.5 t33 -21.5q24 0 47.5 20.5t34.5 40.5l12 21l43 -80q-4 -6 -11 -15.5t-31 -34t-49.5 -43.5t-64.5 -34.5t-77 -15.5q-62 0 -101.5 18.5t-53.5 48.5q-13 31 -17 69l-2 22q0 28 6 56q8 40 16.5 78.5t15.5 68.5t1.5 48.5t-25.5 18.5q-34 0 -66 -54t-48 -108l-15 -55 q-25 -120 -25 -173q0 -32 9 -40q18 -18 -16 -29q-21 -6 -43 -6q-32 0 -68 12q-35 12 -56 33q-14 14 -14 72q0 39 6 98z" />
<glyph unicode="i" horiz-adv-x="339" d="M0 198q2 55 13 110.5t18 106t11.5 85t-7.5 47.5q4 0 11.5 0.5t29 0.5t41 -1t43.5 -6t41 -12.5t29 -21.5t12 -32q0 -25 -8.5 -71t-16.5 -88q-7 -43 -13 -84q-2 -18 -3 -33q0 -19 4 -33q7 -25 28 -25t48.5 18t44.5 36l18 18l37 -68q-4 -6 -12 -15.5t-34.5 -34.5 t-54.5 -44.5t-71 -35t-86 -15.5q-51 0 -80.5 27.5t-36.5 71.5q-6 36 -6 80v19zM96 628q13 -41 45 -53q11 -4 22 -4q22 0 44 16q34 24 47 70q8 25 8 48q0 20 -6 39q-13 41 -45 53q-11 4 -22 4q-22 0 -44 -16q-34 -24 -47 -70q-8 -25 -8 -48q0 -20 6 -39z" />
<glyph unicode="j" horiz-adv-x="688" d="M41 -244q0 122 81 162q28 14 52 14q13 0 24 -4q18 -7 7 -18q-16 -18 -19 -54v-9q0 -32 18 -59q19 -32 60 -32q50 0 90.5 81t62 197.5t33.5 235.5q12 113 12 198v7q-1 87 -11 98q8 1 21.5 1.5t48.5 -3t61.5 -12.5t48.5 -33.5t22 -60.5q0 -39 -2.5 -94.5t-12.5 -146 t-25.5 -178t-44 -179.5t-66 -161t-94.5 -113t-125 -44q-26 0 -50 2.5t-61.5 14.5t-64 32.5t-46.5 61.5t-20 96zM509 658q13 -42 48 -54q11 -4 22 -4q24 0 47 16q35 25 48 72q9 26 9 51q0 20 -5 39q-14 44 -47 56q-11 4 -22 4q-24 0 -47 -16q-35 -25 -52 -72q-7 -25 -7 -49 q0 -22 6 -43z" />
<glyph unicode="k" horiz-adv-x="614" d="M4 190q16 148 45 314t49 310q11 81 11 122q0 31 -7 37q10 1 26.5 2t59 -1t75 -10.5t59 -31.5t26.5 -58q0 -32 -17.5 -115.5t-51 -224.5t-48.5 -212q36 6 70 32.5t55 60.5t38 71t18.5 62.5t-4.5 35.5q6 0 16.5 -0.5t36.5 -6.5t45.5 -16t36 -32t15.5 -52q0 -84 -73 -140 t-178 -83q15 -12 40 -35t39.5 -35.5t33.5 -23t35 -10.5q26 0 65 21.5t64 42.5l26 22l45 -50q-4 -7 -11 -19t-30.5 -42t-48.5 -52.5t-62 -41.5t-73 -19q-45 0 -79.5 11.5t-58 35t-37 42t-29 49.5t-21.5 40q-18 -92 -18 -138q0 -34 10 -42q17 -18 -18 -29q-20 -6 -43 -6 q-33 0 -70 13q-33 11 -54 32q-14 14 -14 72q0 39 6 98z" />
<glyph unicode="l" horiz-adv-x="307" d="M-10 358q10 100 31 199t36 187t25 144q4 26 4 43q0 20 -6 27q9 1 24 2t53 -1t67 -10t53 -31t24 -58q0 -10 -19.5 -91.5t-41.5 -184.5q-24 -103 -42 -207q-17 -94 -17 -160q0 -7 1 -14q2 -70 33 -70q14 0 41 22t48 44l20 22l24 -76q-4 -6 -10.5 -16t-31 -36t-53 -45.5 t-75 -35.5t-96.5 -16q-51 0 -77 50t-26 128q0 79 11 184z" />
<glyph unicode="m" horiz-adv-x="1089" d="M0 66q0 19 14 100.5t27.5 162.5t20.5 158q2 26 2 44q0 36 -9 42q5 0 13 0.5t32 1t46 -1t48.5 -6.5t45.5 -13t32 -22.5t13 -33.5q0 -23 -2 -37q89 114 213 114q47 0 79 -15.5t45 -41.5t17.5 -52t1.5 -56q140 165 250 165q67 0 89 -46q14 -30 14 -68q0 -21 -4 -44 q-12 -66 -28 -132q-16 -64 -17 -109q0 -49 36 -49q26 0 61.5 25t57.5 50l22 25l10 -67q-4 -7 -12 -17.5t-33.5 -38t-52 -48.5t-66.5 -38.5t-79 -17.5q-62 0 -100 17t-50 45.5t-12 64.5t11.5 73.5t22 73.5t18.5 64.5t2 45.5t-29 17q-37 0 -71.5 -38.5t-55.5 -92.5 t-37.5 -112.5t-18 -99t3.5 -50.5q10 -9 -20 -21q-35 -13 -71 -13q-22 0 -45 5q-81 18 -81 97q0 11 10.5 50.5t21 82.5t17.5 87q3 20 3 36q0 20 -4 35q-8 28 -35 28t-59.5 -42t-51.5 -84l-18 -42q-43 -166 -43 -199q0 -6 2 -8q6 -6 -12 -13q-31 -12 -68 -12q-19 0 -39 3 q-78 11 -78 68z" />
<glyph unicode="n" horiz-adv-x="710" d="M0 68q0 18 14 99.5t27.5 162t20.5 157.5q2 26 2 44q0 36 -9 42q9 1 25 2t56 -0.5t70.5 -7.5t55.5 -23.5t25 -43.5q0 -25 -2 -37q89 115 211 115q52 0 81 -24q29 -26 35 -64q4 -24 5 -50q0 -17 -2 -35q-4 -47 -14 -94.5t-17 -86t-3.5 -63t23.5 -24.5q19 0 46.5 22.5 t45.5 44.5l17 23l39 -71q-5 -6 -14.5 -16.5t-38.5 -37.5t-57.5 -47.5t-67.5 -37.5t-72 -17q-63 0 -99.5 22t-46.5 57q-8 29 -8 63v14q2 42 12.5 84.5t19 77.5t7.5 57t-18 22q-27 0 -60 -42.5t-52 -84.5l-19 -43q-40 -167 -40 -199q0 -6 1 -8q6 -6 -12 -13q-30 -11 -67 -11 q-19 0 -40 3q-80 11 -80 69z" />
<glyph unicode="o" horiz-adv-x="589" d="M16 333q36 120 132 188q74 52 163 52q94 0 153 -59t75 -149q36 21 82.5 51.5t74.5 50.5l29 20l35 -79q-119 -81 -217 -132q-8 -113 -84.5 -194.5t-206.5 -81.5q-162 0 -223 114q-29 54 -29 118q0 48 16 101zM204 190q1 -77 52 -77q33 0 62.5 39.5t48.5 99.5 q-43 24 -43 66v10q6 49 55 75q-10 41 -39 41q-45 0 -90 -84q-46 -89 -46 -170z" />
<glyph unicode="p" horiz-adv-x="628" d="M-82 -342q0 19 44.5 247.5t78.5 445.5q21 137 21 195q0 35 -7 42q10 1 27 2t60 -1t76 -10.5t60 -31.5t27 -58v-6q88 74 178 74q106 0 136 -97q10 -34 10 -72q0 -66 -31 -144q-50 -125 -145 -186q-61 -38 -127 -38q-60 0 -113 33q-57 -262 -57 -396q0 -97 30 -126 q11 -12 -17 -18q-19 -4 -39 -4q-42 0 -91 15q-108 33 -120 115q-1 9 -1 19zM251 183.5q0 -21.5 3.5 -38t15.5 -30t31 -13.5q31 0 70 85q48 106 48 194q0 76 -48 76q-59 0 -99 -146l-18 -84q-1 -5 -2 -13.5t-1 -30z" />
<glyph unicode="q" horiz-adv-x="593" d="M9 118q-10 33 -10 71q0 65 31 143q51 125 146 185q60 38 125 38q50 0 92 -20q1 15 1 26q0 34 -7 41q10 1 27 2t59.5 -1t75 -10t59.5 -31t27 -58q0 -28 -16.5 -106.5t-39.5 -172.5t-45 -204.5t-36 -204.5q-12 -75 -12 -138v-30q4 -75 30 -101q12 -12 -18 -18 q-18 -3 -37 -3q-42 0 -93 16q-108 34 -117 116q-1 7 -1 14q0 13 9.5 67t32 173t34.5 182q-88 -74 -181 -74q-106 0 -136 98zM209 197q0 -76 47 -76q25 0 47.5 28t34 59.5t20.5 67.5l19 117q0 80 -49 80q-31 0 -71 -86q-47 -103 -48 -190z" />
<glyph unicode="r" horiz-adv-x="503" d="M0 106q0 21 13 95.5t25 145.5t17 141q1 17 1 31q0 41 -11 48q4 1 12 1.5t30.5 1.5t42.5 0.5t45 -4t43 -10.5t30 -20.5t12 -31.5q0 -32 -6 -78q82 147 154 147q62 1 84 -49q12 -28 13 -59q0 -25 -8 -52q-17 -61 -55 -98q-46 -46 -88 -46q-14 0 -27 5q-22 9 -24 22q1 6 8 7 q6 0 15.5 22t8.5 44t-20 22q-23 0 -49 -38.5t-41 -84.5q-34 -168 -34 -218q0 -17 4 -21q12 -12 -21 -22q-24 -7 -49 -7q-29 0 -58 10q-67 25 -67 96z" />
<glyph unicode="s" horiz-adv-x="454" d="M20 201q-1 12 -1 24q0 98 68 147q31 23 55 23q5 0 10 -1q17 -4 4 -19q-15 -17 -15 -56q0 -20 4 -45q47 63 93 136q-1 11 -1 23q0 25 3 51q4 40 13 80t29.5 66.5t47.5 26.5q8 0 18.5 -1t13.5 -1q19 -3 31.5 -10t16 -13t2.5 -9q0 -55 -37 -131q3 -52 31 -148t28 -154 q0 -44 -15 -79t-36.5 -54.5t-49.5 -32.5t-48.5 -17t-38.5 -5q-19 -2 -40.5 -0.5t-54.5 12.5t-59 30.5t-47 60t-25 96.5zM178 178q32 -49 62 -49h6q33 3 33 53t-17 107q-46 -67 -84 -111z" />
<glyph unicode="t" horiz-adv-x="391" d="M-17.5 683q-10.5 21 3.5 41.5t41 20.5q30 -2 71 -2q12 54 17.5 81.5t11 61t5 50t-6.5 22.5q10 1 26.5 2t59 -1t75 -10t59 -31t27.5 -58q0 -3 -30 -123q17 0 37.5 -1t21.5 -1q21 0 28.5 -15.5t-1 -31.5t-27.5 -16q-38 0 -77 -2q-27 -104 -43.5 -177.5t-32.5 -165.5 q-11 -65 -10 -108q0 -18 2 -33q6 -49 36 -49q15 0 44.5 21.5t51.5 43.5l23 21l31 -73q-4 -6 -12 -16t-35.5 -36t-59 -46t-83 -36t-107.5 -16q-27 0 -47.5 10.5t-33 32t-21.5 47t-11 63t-2 73t5.5 83t11 87t15.5 91.5t17.5 89.5t18.5 87.5q-12 0 -31 -1t-26 -1 q-32 0 -42.5 21z" />
<glyph unicode="u" horiz-adv-x="716" d="M2 124q-1 16 0 33q0 41 4 87q6 66 16 127q10 55 10 102v9q-1 50 -20 69q9 1 23.5 2t52 1t66 -5t52 -21t23.5 -41q0 -36 -8 -90t-15 -98q-6 -43 -10 -85q-1 -11 -1 -22q1 -28 7 -44q10 -24 34 -23q30 0 61.5 61.5t50.5 137.5q18 76 26 146q3 22 3 39q0 35 -12 46q9 1 24 2 t53 -0.5t67 -7t53 -22t24 -42.5q0 -20 -11.5 -67t-22.5 -94t-18 -93q-3 -18 -3 -33q0 -24 7 -42q11 -29 42 -29q19 0 43.5 22.5t39.5 44.5l15 23l39 -67q-5 -6 -13 -16t-35 -36t-55 -46t-69.5 -36t-81.5 -16q-59 0 -89 29.5t-40 70.5q-90 -100 -209 -100q-59 0 -90 35 t-33 89z" />
<glyph unicode="v" horiz-adv-x="532" d="M0 573q5 1 13.5 2.5t33 3t47 0.5t49.5 -8t46.5 -20t33 -37.5t13.5 -58.5q0 -51 -7 -103.5t-14 -85t-11.5 -59.5t0 -39t21.5 -12q27 0 65 95q36 95 60 198q19 85 20 118q0 7 -1 11q4 1 10.5 2.5t25.5 3t36.5 0.5t39 -7.5t36.5 -19.5t25.5 -37.5t10.5 -58.5 q0 -76 -30.5 -149.5t-78.5 -128t-108 -97.5q-60 -42 -116 -64q-55 -21 -102 -22h-2q-48 0 -75 27q-22 22 -26 78q-2 21 -2 44q1 37 5 79l12 136q3 35 4 68q0 30 -3 58q-6 58 -31 83z" />
<glyph unicode="w" horiz-adv-x="937" d="M4 104q-2 23 -2 49q0 25 2 55q4 58 18.5 118t23 114t12 92.5t-12.5 55.5q5 0 13.5 0.5t33.5 0.5t47.5 -1t50.5 -6t48 -12.5t33.5 -21.5t14.5 -32q0 -13 -11 -54.5t-22 -88.5t-19 -93q-5 -28 -5 -51q0 -14 2 -25q5 -30 27 -30q37 0 71 38.5t54.5 92t37 112t17.5 98.5 t-4 50q-9 9 20 20q36 15 73 15q21 0 43 -5q80 -18 81 -95q0 -11 -10 -51t-20.5 -83.5t-16.5 -87.5q-3 -20 -3 -35q0 -21 4 -37q8 -28 34 -28q43 0 69 60q25 60 30 136q3 44 3 86q1 28 -1 54q-4 64 -13 74q4 1 12 2.5t29.5 4t41.5 2t44.5 -7t42 -18.5t29.5 -36.5t12 -57.5 q0 -42 -16.5 -100.5t-49.5 -121.5t-76.5 -117t-104 -89t-124.5 -35q-155 0 -182 148q-112 -162 -266 -162q-53 0 -82 29t-33 75z" />
<glyph unicode="x" horiz-adv-x="636" d="M-0.5 74q-3.5 15 6.5 35q15 45 187 186l-12 24q-90 179 -121 213q-2 3 -5 5q5 4 14.5 10.5t37 18.5t53 15t57.5 -9.5t57 -45.5q26 -39 66 -110q129 109 129 137q5 0 14 -1t31 -6t39 -14t31 -27t14 -42q0 -40 -170 -195q74 -122 96 -125q29 0 60 20.5t47 40.5l16 21 l31 -80q-4 -6 -11.5 -15.5t-33.5 -34.5t-53.5 -44.5t-70.5 -35t-87 -15.5q-56 0 -141 139q-117 -105 -117 -133q0 -4 2 -6h-7t-18 0.5t-26.5 2t-30.5 4.5t-30 8.5t-26.5 13.5t-19.5 19t-8.5 26z" />
<glyph unicode="y" horiz-adv-x="522" d="M-31 -141q0 90 76 126q29 13 49 13q9 0 16 -2q10 -3 3 -10q-15 -15 -19 -46q-1 -4 -1 -8q0 -26 21 -50q23 -29 79 -29q34 0 61 34t43 88t25 101t14 92q-22 -28 -83.5 -65t-139.5 -37q-53 0 -79.5 31t-29.5 79v30q0 35 4 76q5 59 14 112q9 46 9 85q0 6 -1 13q-1 44 -18 61 q4 1 11 1.5t27 1.5t38 0.5t40.5 -3.5t38.5 -9t27 -18t11 -28q0 -42 -16 -132q-15 -83 -15 -132v-8q2 -50 37 -50q27 0 55.5 54.5t44.5 122.5t23 129q3 19 3 34q0 31 -11 41q8 1 21 2t47 0t60 -6t47 -19.5t21 -37.5q0 -20 -3 -65t-12.5 -124.5t-24.5 -161t-42.5 -168 t-63 -153t-90 -109.5t-118.5 -43q-34 0 -66 8.5t-63.5 27.5t-50.5 58t-19 93z" />
<glyph unicode="z" horiz-adv-x="598" d="M6 145q9 35 25 52q15 15 127 93q115 80 115 102q0 11 -25 11q-30 0 -70.5 -22.5t-65.5 -44.5l-26 -23q-19 -7 -35 34q-13 33 -13 68q0 32 11 65q22 70 88 102q16 8 50 8q20 0 45 -2q70 -8 134 -16q20 -2 41 -2q46 0 93 12q16 5 23 -22q6 -22 6 -47q0 -34 -10 -75 q-7 -34 -19 -49q-15 -20 -132.5 -83.5t-117.5 -84.5q0 -25 69 -25h4q68 0 146 19q81 19 113 45q9 7 14 -14q3 -14 3 -30q0 -35 -17 -78q-43 -110 -166 -127q-20 -3 -43 -3q-51 0 -126.5 14.5t-122.5 14.5t-77 -29q-24 -25 -38 20q-10 29 -10 62q0 26 7 55z" />
<glyph unicode="{" />
<glyph unicode="|" />
<glyph unicode="}" />
<glyph unicode="~" />
<glyph unicode="&#xa1;" />
<glyph unicode="&#xa2;" />
<glyph unicode="&#xa3;" />
<glyph unicode="&#xa4;" />
<glyph unicode="&#xa5;" />
<glyph unicode="&#xa6;" />
<glyph unicode="&#xa7;" />
<glyph unicode="&#xa9;" />
<glyph unicode="&#xab;" />
<glyph unicode="&#xac;" />
<glyph unicode="&#xad;" />
<glyph unicode="&#xae;" />
<glyph unicode="&#xb0;" />
<glyph unicode="&#xb1;" />
<glyph unicode="&#xb6;" />
<glyph unicode="&#xb7;" />
<glyph unicode="&#xbb;" />
<glyph unicode="&#xbf;" />
<glyph unicode="&#xd7;" />
<glyph unicode="&#xf7;" />
<glyph unicode="&#x2000;" horiz-adv-x="819" />
<glyph unicode="&#x2001;" horiz-adv-x="1639" />
<glyph unicode="&#x2002;" horiz-adv-x="819" />
<glyph unicode="&#x2003;" horiz-adv-x="1639" />
<glyph unicode="&#x2004;" horiz-adv-x="546" />
<glyph unicode="&#x2005;" horiz-adv-x="409" />
<glyph unicode="&#x2006;" horiz-adv-x="273" />
<glyph unicode="&#x2007;" horiz-adv-x="273" />
<glyph unicode="&#x2008;" horiz-adv-x="204" />
<glyph unicode="&#x2009;" horiz-adv-x="327" />
<glyph unicode="&#x200a;" horiz-adv-x="91" />
<glyph unicode="&#x2010;" />
<glyph unicode="&#x2011;" />
<glyph unicode="&#x2012;" />
<glyph unicode="&#x2013;" />
<glyph unicode="&#x2014;" />
<glyph unicode="&#x2018;" />
<glyph unicode="&#x2019;" />
<glyph unicode="&#x201a;" d="M25 -100q-11 14 2 24q14 11 45 75.5t43 109.5q7 30 35 30q14 0 23.5 -2t19.5 -9.5t9 -22t-7 -39.5q-52 -155 -122 -177q-33 -10 -48 11z" />
<glyph unicode="&#x201c;" />
<glyph unicode="&#x201d;" />
<glyph unicode="&#x201e;" d="M25 -100q-11 14 2 24q14 11 45 75.5t43 109.5q7 30 35 30q14 0 23.5 -2t19.5 -9.5t9 -22t-7 -39.5q-52 -155 -122 -177q-33 -10 -48 11z" />
<glyph unicode="&#x2022;" />
<glyph unicode="&#x2026;" d="M20 86q0 18 13.5 30.5t32.5 12.5t31 -12t12 -31t-12 -30t-31 -11t-32.5 11.5t-13.5 29.5z" />
<glyph unicode="&#x202f;" horiz-adv-x="327" />
<glyph unicode="&#x2039;" />
<glyph unicode="&#x203a;" />
<glyph unicode="&#x205f;" horiz-adv-x="409" />
<glyph unicode="&#x20ac;" />
<glyph unicode="&#x2122;" horiz-adv-x="1624" d="M0 829q0 81 66 138q63 48 174 71q115 27 376 31q6 43 -10 59q-2 1 -4 4l-2 3q1 0 3 0.5t6 1t9 0.5q30 0 72.5 -17.5t75.5 -48.5q246 0 367 14v2q8 4 21 9.5t49.5 14t66.5 5.5q31 9 53 25q55 34 55 96q0 6 4 6q13 0 41 -18.5t54 -48.5q55 -64 65 -140q58 26 137 -17 q38 -21 39 -33q1 -4 -8 -3q-14 2 -28.5 -32t-27 -94t-24.5 -138.5t-20.5 -167t-15 -178t-8 -172.5t1 -150t10.5 -112t22 -56q12 -10 -17 -24q-52 -23 -116 -6q-78 21 -115 102q-50 114 51 606q-177 -529 -217 -536q-19 -4 -32 11.5t-18.5 47.5t-7.5 69.5t1 88t6.5 92.5 t9.5 92q-120 -434 -280 -469q-73 -16 -129.5 0.5t-89 57.5t-51.5 97t-20.5 121t7 128.5t28 119.5t44.5 94q80 123 203 90q65 -17 105 -61q22 -26 9 -29q-49 -13 -101 -138t-54 -218q-2 -66 30 -62q2 1 4 1q37 7 112 230.5t120 442.5q-94 -6 -221 -6q-76 0 -113 2 q-2 -6 -76 -139q-42 -73 -65.5 -116.5t-59.5 -124.5t-55.5 -148t-35 -159.5t-15.5 -186.5q0 -15 -19 -25q-17 -10 -45 -10q-75 0 -127 55q-67 70 -67 199q0 56 21 126.5t66.5 160.5t77.5 147.5t91 157.5q-110 -107 -252 -107q-89 0 -146 45q-61 48 -61 127zM160 788 q0 -24 14 -38q15 -15 39 -15q64 0 199 82l28 17h-34h-33q-116 0 -164.5 -10.5t-48.5 -35.5zM1288 492q94 262 158 405q-50 -22 -78 -29q-25 -145 -80 -376z" />
<glyph unicode="&#x25fc;" horiz-adv-x="583" d="M0 0v584h584v-584h-584z" />
</font>
</defs>
</svg>
